<svg xmlns="http://www.w3.org/2000/svg" viewBox="0 0 120 120">
  <rect width="120" height="120" rx="24" fill="#336791"/>
  <path d="M31 76c2-18 14-34 29-39 11-4 25-1 32 8 6 8 4 18 1 28-3 10-9 21-19 27-10 6-24 7-34 2-7-3-12-10-13-18 0-3 1-6 4-8z" fill="#2f6d9b"/>
  <path d="M53 77c3-8 8-14 15-18 4-2 9-2 13 0 4 3 6 8 5 13-1 7-5 13-11 16-7 4-15 4-21 0-3-2-4-6-1-11z" fill="#fff" opacity="0.9"/>
  <path d="M42 57c-2-10 4-18 13-23 9-5 20-4 27 2 5 4 8 10 7 17-1 6-4 10-8 14-6 5-15 8-23 7-8-1-14-7-16-17z" fill="#fff" opacity="0.14"/>
</svg>